<?xml version="1.0" encoding="UTF-8"?>
<svg width="60px" height="75px" viewBox="0 0 90 112" version="1.1" xmlns="http://www.w3.org/2000/svg" xmlns:xlink="http://www.w3.org/1999/xlink">
    <!-- Generator: Sketch 45.2 (43514) - http://www.bohemiancoding.com/sketch -->
    <title>mouse</title>
    <desc>Created with Sketch.</desc>
    <defs>
        <polygon id="path-1" points="34.7387861 35.1182963 34.7387861 0.14101288 0.198238099 0.14101288 0.198238099 35.1182963 34.7387861 35.1182963"></polygon>
        <path d="M52.0065082,6.63122057 C54.2788336,10.4936501 55.124104,16.2448939 53.7979546,23.1511706 C48.8867472,34.9474985 39.1687054,42.0785986 27.336534,47.3427692 C21.9417155,44.3749617 16.3373138,41.155744 11.1990212,36.5381441 L11.1754205,36.5554405 C11.0230876,36.406946 10.86943,36.2541755 10.7146466,36.0973848 C10.3612561,35.771761 10.0101983,35.4392717 9.66169682,35.0995372 L9.72432793,35.0564637 C7.02526201,32.1202468 4.12151799,28.1760843 1.99286336,24.483498 C-5.24491074,1.78750218 11.2601458,-8.96956705 27.395114,9.29503413 C37.6853373,-1.0795856 47.6293824,-0.713392358 52.2437915,6.45732167 L52.0065136,6.63121748 Z" id="path-3"></path>
        <filter x="-1.8%" y="-2.1%" width="107.4%" height="108.5%" filterUnits="objectBoundingBox" id="filter-4">
            <feOffset dx="1" dy="1" in="SourceAlpha" result="shadowOffsetOuter1"></feOffset>
            <feGaussianBlur stdDeviation="0.5" in="shadowOffsetOuter1" result="shadowBlurOuter1"></feGaussianBlur>
            <feColorMatrix values="0 0 0 0 0   0 0 0 0 0   0 0 0 0 0  0 0 0 0.5 0" type="matrix" in="shadowBlurOuter1"></feColorMatrix>
        </filter>
    </defs>
    <g id="Page-1" stroke="none" stroke-width="1" fill="none" fill-rule="evenodd">
        <g id="Artboard-4-Copy-4" transform="translate(-643.000000, -6136.000000)">
            <g id="Group-10" transform="translate(0.000000, 6063.000000)">
                <g id="mouse" transform="translate(643.000000, 73.000000)">
                    <path d="M27.1548454,82.7510853 C13.8637695,84.8113853 4.92516598,88.5573365 5.84336245,96.1196534 C7.20489123,112.10942 28.1366445,106.723775 39.3455407,110.695214 C40.0826312,110.956178 39.8187879,112.070987 39.0420804,111.977459 C25.4480833,110.341797 0.938678692,116.234051 0,95.2625836 C0.714452258,82.8180061 15.1242347,80.3516126 25.6081681,76.7524034 L27.1548454,82.7510853 Z" id="Fill-1" fill="#F4C6B6"></path>
                    <g id="Group-5" transform="translate(54.698919, 0.000000)">
                        <mask id="mask-2" fill="white">
                            <use xlink:href="#path-1"></use>
                        </mask>
                        <g id="Clip-4"></g>
                        <path d="M0.198238099,20.6760811 C4.59711464,4.39407656 12.7402999,-2.71076341 23.7943733,1.1869985 C41.0129299,8.77742007 37.8244236,39.3444817 14.8661595,34.6260377 L0.198238099,20.6760811 Z" id="Fill-3" fill="#FCF7ED" mask="url(#mask-2)"></path>
                    </g>
                    <path d="M89.5073216,17.3688185 C89.5073216,25.5716025 83.9163057,31.455903 77.437379,31.455903 C70.9581783,31.455903 64.6441767,27.2985756 64.6441767,19.0957915 C64.6441767,10.8932777 71.2970693,2.51647224 77.775996,2.51647224 C84.2551967,2.51647224 89.5073216,9.16603444 89.5073216,17.3688185" id="Fill-6" fill="#F4C6B6"></path>
                    <path d="M34.8084029,23.2002687 C30.3754266,6.80033934 22.1691159,-0.355958441 11.0293523,3.57003356 C-6.32268127,11.2154298 -3.10945792,42.0038778 20.0267769,37.2512598 L34.8084029,23.2002687 Z" id="Fill-8" fill="#FCF7ED"></path>
                    <path d="M2.48631449,19.8852907 C2.48631449,28.0880748 8.07733044,33.9723753 14.5562571,33.9723753 C21.0351838,33.9723753 27.3494594,29.8150478 27.3494594,21.6122637 C27.3494594,13.4097499 20.6965668,5.03294448 14.2176401,5.03294448 C7.73843947,5.03294448 2.48631449,11.6825067 2.48631449,19.8852907" id="Fill-10" fill="#F4C6B6"></path>
                    <path d="M47.8830756,101.917126 C30.458048,101.917126 11.1884152,97.6670023 11.1884152,72.0577066 C11.1884152,46.4486858 23.2183784,14.6034023 46.9348079,15.1046777 C69.5222958,15.0909366 80.8052209,45.7459657 80.8052209,71.3552614 C80.8052209,96.9645571 65.3078328,101.917126 47.8830756,101.917126 Z" id="Fill-12" fill="#FCF7ED"></path>
                    <path d="M54.6989188,36.4888475 C54.6989188,37.1838376 54.1422471,37.7470836 53.4557615,37.7470836 C52.7691003,37.7470836 52.2126043,37.1838376 52.2126043,36.4888475 C52.2126043,35.7938574 52.7691003,35.2306114 53.4557615,35.2306114 C54.1422471,35.2306114 54.6989188,35.7938574 54.6989188,36.4888475" id="Fill-14" fill="#382E2A"></path>
                    <path d="M39.7810318,36.4888475 C39.7810318,37.1838376 39.2243602,37.7470836 38.5378746,37.7470836 C37.8512133,37.7470836 37.2947174,37.1838376 37.2947174,36.4888475 C37.2947174,35.7938574 37.8512133,35.2306114 38.5378746,35.2306114 C39.2243602,35.2306114 39.7810318,35.7938574 39.7810318,36.4888475" id="Fill-16" fill="#382E2A"></path>
                    <path d="M42.7353823,42.7800281 L46.7719115,42.7800281 C47.1882046,42.7800281 47.3964609,43.1889232 47.102181,43.4280547 L44.9397389,45.1852516 C44.7481607,45.3411061 44.4341304,45.3320116 44.2563774,45.1654577 L42.3822902,43.4082608 C42.1202691,43.1623531 42.3351088,42.7800281 42.7353823,42.7800281" id="Fill-18" fill="#F4C6B6"></path>
                    <path d="M54.6989188,42.7800281 C54.6989188,42.7800281 68.0062465,36.664921 77.0757492,37.9157974" id="Stroke-20" stroke="#382E2A" stroke-width="0.5" stroke-linecap="round"></path>
                    <path d="M58.4283905,45.2965004 C58.4283905,45.2965004 72.639365,40.6849152 80.8052209,43.9473407" id="Stroke-22" stroke="#382E2A" stroke-width="0.5" stroke-linecap="round"></path>
                    <path d="M54.6989188,47.9418482 C54.6989188,47.9418482 69.9281876,46.5600156 77.0757492,52.8459171" id="Stroke-24" stroke="#382E2A" stroke-width="0.5" stroke-linecap="round"></path>
                    <path d="M36.0515601,42.7800281 C36.0515601,42.7800281 22.7442323,36.664921 13.6747297,37.9157974" id="Stroke-26" stroke="#382E2A" stroke-width="0.5" stroke-linecap="round"></path>
                    <path d="M36.0515601,45.2965004 C36.0515601,45.2965004 21.8405856,40.6849152 13.6747297,43.9473407" id="Stroke-28" stroke="#382E2A" stroke-width="0.5" stroke-linecap="round"></path>
                    <path d="M36.0515601,47.9418482 C36.0515601,47.9418482 20.8222913,46.5600156 13.6747297,52.8459171" id="Stroke-30" stroke="#382E2A" stroke-width="0.5" stroke-linecap="round"></path>
                    <path d="M54.2414818,97.050882 C54.2460867,97.0324553 54.2503846,97.0140285 54.2549895,96.9952728 C54.9285328,94.2822652 58.1433664,93.4734632 59.9524778,95.5033654 C61.1804509,96.8814219 62.2199301,98.452959 63.0264014,100.15118 C63.8644931,101.915869 63.2532695,104.090223 61.6231352,105.021103 C60.4491929,105.691704 59.2282806,106.266881 57.9742131,106.741041 C55.7276363,107.590316 53.4083021,105.74139 53.4565,103.18863 C53.4954882,101.119242 53.7579674,99.0547893 54.2414818,97.050882" id="Fill-36" fill="#F4C6B6"></path>
                    <path d="M32.0477678,95.5827277 C32.0625522,95.5680776 32.0773365,95.5531285 32.0921209,95.5384784 C34.2750656,93.3813257 38.1504995,94.3583978 38.9912803,97.2154665 C39.562407,99.1546615 39.8269187,101.172489 39.7745306,103.182841 C39.7198927,105.271228 37.8940228,106.961671 35.6480838,106.95001 C34.0311235,106.941639 32.4148059,106.819355 30.8174509,106.585552 C27.9566749,106.166678 26.4718097,103.203471 27.8994658,100.859455 C29.056825,98.9591275 30.4504128,97.1834755 32.0477678,95.5827277" id="Fill-38" fill="#F4C6B6"></path>
                    <g id="Page-1" transform="translate(17.404201, 52.845917)">
                        <g id="Group-6" transform="translate(0.000000, 0.235003)">
                            <g id="Combined-Shape">
                                <use fill="black" fill-opacity="1" filter="url(#filter-4)" xlink:href="#path-3"></use>
                                <use fill="#E85757" fill-rule="evenodd" xlink:href="#path-3"></use>
                            </g>
                        </g>
                        <g id="Group-26" transform="translate(1.475071, 0.000000)">
                            <g id="Group-3" transform="translate(0.000000, 0.235003)"></g>
                        </g>
                    </g>
                    <path d="M19.4310022,61.2280359 C19.6583126,61.0299428 19.7389907,60.7337838 19.8093823,60.454296 C20.079452,59.3836126 19.5657346,58.5555441 19.8358043,57.4848607 C19.9673096,56.9631501 19.4336242,56.4963565 18.8712982,56.650516 C17.3886374,57.0569011 16.044541,57.8853618 15.0866909,58.9938987 C14.8287228,59.2922151 14.8698686,59.722136 15.18653,59.9694582 L16.5395009,61.0260202 C16.8414385,61.2617706 17.1524524,61.5024243 17.5272019,61.6234376 C17.9019515,61.7444509 19.1435867,61.4783001 19.4310022,61.2280359" id="Fill-42" fill="#F4C6B6"></path>
                    <path d="M78.0655438,61.8904888 C76.955734,59.6620183 75.1186008,57.8322441 72.9454728,56.8086217 C71.8884296,56.3108554 70.6491277,56.8388259 70.1679534,57.9527591 L68.5689829,61.6554996 C68.0378943,62.8851151 68.6308767,64.3488137 69.8499277,64.7502283 C71.9999525,65.4579142 74.3128407,65.6149763 76.5310342,65.2057086 C77.9796911,64.9387029 78.7515095,63.2678031 78.0655438,61.8904888" id="Fill-40" fill="#F4C6B6"></path>
                </g>
            </g>
        </g>
    </g>
</svg>